<svg width="24" height="24" viewBox="0 0 24 24" fill="none" xmlns="http://www.w3.org/2000/svg">
<circle cx="12" cy="12" r="12" fill="#DDF4F0"/>
<path d="M19 16.9999H18V9.99992C18 9.7347 17.8946 9.48035 17.7071 9.29281C17.5196 9.10527 17.2652 8.99992 17 8.99992H13V5.99992C13.0001 5.81883 12.9511 5.64111 12.8581 5.48573C12.7651 5.33035 12.6316 5.20313 12.472 5.11766C12.3123 5.03219 12.1325 4.99168 11.9516 5.00044C11.7707 5.0092 11.5956 5.06692 11.445 5.16742L6.445 8.49992C6.30784 8.59143 6.19543 8.71544 6.11779 8.86091C6.04015 9.00637 5.99969 9.16878 6 9.33367V16.9999H5C4.86739 16.9999 4.74021 17.0526 4.64645 17.1464C4.55268 17.2401 4.5 17.3673 4.5 17.4999C4.5 17.6325 4.55268 17.7597 4.64645 17.8535C4.74021 17.9472 4.86739 17.9999 5 17.9999H19C19.1326 17.9999 19.2598 17.9472 19.3536 17.8535C19.4473 17.7597 19.5 17.6325 19.5 17.4999C19.5 17.3673 19.4473 17.2401 19.3536 17.1464C19.2598 17.0526 19.1326 16.9999 19 16.9999ZM17 9.99992V16.9999H13V9.99992H17ZM7 9.33367L12 5.99992V16.9999H7V9.33367ZM11 10.9999V11.9999C11 12.1325 10.9473 12.2597 10.8536 12.3535C10.7598 12.4472 10.6326 12.4999 10.5 12.4999C10.3674 12.4999 10.2402 12.4472 10.1464 12.3535C10.0527 12.2597 10 12.1325 10 11.9999V10.9999C10 10.8673 10.0527 10.7401 10.1464 10.6464C10.2402 10.5526 10.3674 10.4999 10.5 10.4999C10.6326 10.4999 10.7598 10.5526 10.8536 10.6464C10.9473 10.7401 11 10.8673 11 10.9999ZM9 10.9999V11.9999C9 12.1325 8.94732 12.2597 8.85355 12.3535C8.75979 12.4472 8.63261 12.4999 8.5 12.4999C8.36739 12.4999 8.24021 12.4472 8.14645 12.3535C8.05268 12.2597 8 12.1325 8 11.9999V10.9999C8 10.8673 8.05268 10.7401 8.14645 10.6464C8.24021 10.5526 8.36739 10.4999 8.5 10.4999C8.63261 10.4999 8.75979 10.5526 8.85355 10.6464C8.94732 10.7401 9 10.8673 9 10.9999ZM9 14.4999V15.4999C9 15.6325 8.94732 15.7597 8.85355 15.8535C8.75979 15.9472 8.63261 15.9999 8.5 15.9999C8.36739 15.9999 8.24021 15.9472 8.14645 15.8535C8.05268 15.7597 8 15.6325 8 15.4999V14.4999C8 14.3673 8.05268 14.2401 8.14645 14.1464C8.24021 14.0526 8.36739 13.9999 8.5 13.9999C8.63261 13.9999 8.75979 14.0526 8.85355 14.1464C8.94732 14.2401 9 14.3673 9 14.4999ZM11 14.4999V15.4999C11 15.6325 10.9473 15.7597 10.8536 15.8535C10.7598 15.9472 10.6326 15.9999 10.5 15.9999C10.3674 15.9999 10.2402 15.9472 10.1464 15.8535C10.0527 15.7597 10 15.6325 10 15.4999V14.4999C10 14.3673 10.0527 14.2401 10.1464 14.1464C10.2402 14.0526 10.3674 13.9999 10.5 13.9999C10.6326 13.9999 10.7598 14.0526 10.8536 14.1464C10.9473 14.2401 11 14.3673 11 14.4999Z" fill="#059F81"/>
</svg>
