<svg width="16" height="16" viewBox="0 0 16 16" fill="none" xmlns="http://www.w3.org/2000/svg">
<path d="M14.3538 3.64615L12.3538 1.64615C12.3073 1.59967 12.2522 1.56279 12.1915 1.53763C12.1308 1.51246 12.0657 1.49951 12 1.49951C11.9343 1.49951 11.8692 1.51246 11.8085 1.53763C11.7478 1.56279 11.6927 1.59967 11.6462 1.64615L5.64625 7.64615C5.59983 7.69262 5.56303 7.74778 5.53793 7.80848C5.51284 7.86918 5.49995 7.93422 5.5 7.99991V9.9999C5.5 10.1325 5.55268 10.2597 5.64645 10.3535C5.74021 10.4472 5.86739 10.4999 6 10.4999H8C8.06568 10.5 8.13073 10.4871 8.19143 10.462C8.25212 10.4369 8.30728 10.4001 8.35375 10.3537L14.3538 4.35366C14.4002 4.30722 14.4371 4.25207 14.4623 4.19138C14.4874 4.13068 14.5004 4.06561 14.5004 3.99991C14.5004 3.9342 14.4874 3.86913 14.4623 3.80843C14.4371 3.74774 14.4002 3.69259 14.3538 3.64615ZM7.79313 9.4999H6.5V8.20678L10.5 4.20678L11.7931 5.49991L7.79313 9.4999ZM12.5 4.79303L11.2069 3.49991L12 2.70678L13.2931 3.99991L12.5 4.79303ZM14 7.49991V12.9999C14 13.2651 13.8946 13.5195 13.7071 13.707C13.5196 13.8945 13.2652 13.9999 13 13.9999H3C2.73478 13.9999 2.48043 13.8945 2.29289 13.707C2.10536 13.5195 2 13.2651 2 12.9999V2.9999C2 2.73469 2.10536 2.48033 2.29289 2.2928C2.48043 2.10526 2.73478 1.9999 3 1.9999H8.5C8.63261 1.9999 8.75979 2.05258 8.85355 2.14635C8.94732 2.24012 9 2.3673 9 2.4999C9 2.63251 8.94732 2.75969 8.85355 2.85346C8.75979 2.94723 8.63261 2.9999 8.5 2.9999H3V12.9999H13V7.49991C13 7.3673 13.0527 7.24012 13.1464 7.14635C13.2402 7.05258 13.3674 6.99991 13.5 6.99991C13.6326 6.99991 13.7598 7.05258 13.8536 7.14635C13.9473 7.24012 14 7.3673 14 7.49991Z" fill="#059F81"/>
</svg>
