<svg width="20" height="20" viewBox="0 0 20 20" fill="none" xmlns="http://www.w3.org/2000/svg">
<path d="M16.875 3.125H5.625C5.29348 3.125 4.97554 3.2567 4.74112 3.49112C4.5067 3.72554 4.375 4.04348 4.375 4.375V5.625H3.125C2.79348 5.625 2.47554 5.7567 2.24112 5.99112C2.0067 6.22554 1.875 6.54348 1.875 6.875V15.625C1.875 15.9565 2.0067 16.2745 2.24112 16.5089C2.47554 16.7433 2.79348 16.875 3.125 16.875H14.375C14.7065 16.875 15.0245 16.7433 15.2589 16.5089C15.4933 16.2745 15.625 15.9565 15.625 15.625V14.375H16.875C17.2065 14.375 17.5245 14.2433 17.7589 14.0089C17.9933 13.7745 18.125 13.4565 18.125 13.125V4.375C18.125 4.04348 17.9933 3.72554 17.7589 3.49112C17.5245 3.2567 17.2065 3.125 16.875 3.125ZM14.375 6.875V8.125H3.125V6.875H14.375ZM14.375 15.625H3.125V9.375H14.375V15.625ZM16.875 13.125H15.625V6.875C15.625 6.54348 15.4933 6.22554 15.2589 5.99112C15.0245 5.7567 14.7065 5.625 14.375 5.625H5.625V4.375H16.875V13.125Z" fill="#059F81"/>
</svg>
