<svg width="20" height="20" viewBox="0 0 20 20" fill="none" xmlns="http://www.w3.org/2000/svg">
<path d="M11.5347 7.46532C11.5847 7.51532 11.6245 7.57471 11.6516 7.64007C11.6787 7.70544 11.6926 7.77551 11.6926 7.84627C11.6926 7.91703 11.6787 7.98709 11.6516 8.05246C11.6245 8.11782 11.5847 8.17721 11.5347 8.22721L7.22713 12.5348C7.17711 12.5848 7.11772 12.6245 7.05235 12.6515C6.98699 12.6786 6.91693 12.6926 6.84619 12.6926C6.77544 12.6926 6.70538 12.6786 6.64002 12.6515C6.57465 12.6245 6.51526 12.5848 6.46524 12.5348C6.41521 12.4847 6.37553 12.4253 6.34845 12.36C6.32138 12.2946 6.30744 12.2246 6.30744 12.1538C6.30744 12.0831 6.32138 12.013 6.34845 11.9476C6.37553 11.8823 6.41521 11.8229 6.46524 11.7729L10.7728 7.46532C10.8228 7.41525 10.8822 7.37554 10.9475 7.34844C11.0129 7.32134 11.083 7.3074 11.1537 7.3074C11.2245 7.3074 11.2946 7.32134 11.3599 7.34844C11.4253 7.37554 11.4847 7.41525 11.5347 7.46532ZM14.8959 4.10408C14.5459 3.75405 14.1304 3.47638 13.6731 3.28694C13.2158 3.0975 12.7256 3 12.2306 3C11.7356 3 11.2455 3.0975 10.7882 3.28694C10.3308 3.47638 9.91532 3.75405 9.56533 4.10408L7.54212 6.12661C7.44109 6.22764 7.38433 6.36468 7.38433 6.50756C7.38433 6.65044 7.44109 6.78747 7.54212 6.88851C7.64316 6.98954 7.78019 7.0463 7.92307 7.0463C8.06596 7.0463 8.20299 6.98954 8.30402 6.88851L10.3272 4.86934C10.834 4.37374 11.5157 4.09797 12.2245 4.10187C12.9333 4.10577 13.6119 4.38904 14.1132 4.89019C14.6144 5.39135 14.8978 6.06996 14.9018 6.77875C14.9059 7.48754 14.6302 8.16932 14.1347 8.67614L12.1108 10.6993C12.0098 10.8003 11.953 10.9372 11.9529 11.0801C11.9529 11.2229 12.0095 11.3599 12.1105 11.4609C12.2114 11.5619 12.3484 11.6187 12.4912 11.6188C12.634 11.6189 12.771 11.5622 12.872 11.4612L14.8959 9.43467C15.246 9.08467 15.5236 8.66916 15.7131 8.21184C15.9025 7.75453 16 7.26438 16 6.76938C16 6.27438 15.9025 5.78423 15.7131 5.32691C15.5236 4.8696 15.246 4.45408 14.8959 4.10408ZM9.6959 13.1109L7.6727 15.1341C7.42372 15.3887 7.12671 15.5913 6.79888 15.7303C6.47105 15.8693 6.1189 15.9419 5.76282 15.9438C5.40674 15.9458 5.05381 15.8771 4.72447 15.7417C4.39512 15.6064 4.0959 15.407 3.84414 15.1552C3.59237 14.9034 3.39306 14.6041 3.25774 14.2748C3.12243 13.9454 3.05379 13.5924 3.05582 13.2364C3.05784 12.8803 3.13048 12.5282 3.26953 12.2003C3.40859 11.8725 3.61129 11.5756 3.8659 11.3266L5.88843 9.3041C5.98946 9.20307 6.04622 9.06604 6.04622 8.92315C6.04622 8.78027 5.98946 8.64324 5.88843 8.5422C5.78739 8.44117 5.65036 8.38441 5.50748 8.38441C5.3646 8.38441 5.22756 8.44117 5.12653 8.5422L3.104 10.5654C2.39712 11.2723 2 12.231 2 13.2307C2 14.2304 2.39712 15.1891 3.104 15.896C3.81088 16.6029 4.76962 17 5.7693 17C6.76898 17 7.72771 16.6029 8.43459 15.896L10.4578 13.8721C10.5587 13.7711 10.6154 13.6341 10.6154 13.4913C10.6153 13.3485 10.5585 13.2115 10.4575 13.1106C10.3564 13.0096 10.2194 12.9529 10.0766 12.953C9.93379 12.9531 9.79684 13.0099 9.6959 13.1109Z" fill="white"/>
<path d="M13 15.5H18" stroke="white" stroke-linecap="round"/>
<path d="M15.5 13V18" stroke="white" stroke-linecap="round"/>
</svg>
