<svg width="216" height="57" viewBox="0 0 216 57" fill="none" xmlns="http://www.w3.org/2000/svg">
<path d="M9.84 15.68H23.064V18.296H9.84V15.68ZM12.312 9.776H22.464V12.392H12.312V9.776ZM15.12 5.624H17.928V28.16H15.12V5.624ZM14.352 17.024L16.584 17.696C15.216 21.512 12.936 25.064 10.176 27.08C9.744 26.384 8.88 25.376 8.256 24.872C10.848 23.264 13.176 20.144 14.352 17.024ZM18.84 17.144C19.824 19.976 21.744 22.976 23.736 24.656C23.088 25.16 22.128 26.168 21.648 26.912C19.656 24.824 17.88 21.2 16.824 17.768L18.84 17.144ZM11.496 6.8L14.112 7.256C13.656 10.352 12.72 13.4 11.472 15.32C10.968 14.912 9.84 14.192 9.192 13.88C10.392 12.176 11.112 9.488 11.496 6.8ZM0.984 10.112H9.648V12.752H0.984V10.112ZM4.104 5.624H6.912V28.16H4.104V5.624ZM4.08 12.08L5.616 12.68C4.944 16.664 3.504 21.344 1.848 23.84C1.56 23 0.936 21.68 0.456 20.912C2.064 18.896 3.456 15.104 4.08 12.08ZM6.792 13.304C7.344 14 9.336 17.12 9.744 17.84L8.088 19.784C7.56 18.344 6.192 15.536 5.52 14.312L6.792 13.304ZM41.112 7.208L43.032 5.624C44.112 6.368 45.528 7.496 46.2 8.288L44.184 10.016C43.56 9.2 42.216 8 41.112 7.208ZM25.224 9.704H46.824V12.512H25.224V9.704ZM26.112 15.272H36.504V18.056H26.112V15.272ZM29.76 16.856H32.64V24.992H29.76V16.856ZM25.2 24.584C28.104 24.152 32.808 23.336 37.128 22.52L37.344 25.088C33.384 25.952 29.136 26.84 26.016 27.488L25.2 24.584ZM37.008 5.72H40.104C39.888 15.584 41.712 25.16 43.992 25.16C44.52 25.16 44.784 23.84 44.928 20.816C45.576 21.488 46.632 22.184 47.448 22.472C47.016 27.056 46.032 28.184 43.752 28.184C38.544 28.184 37.032 16.832 37.008 5.72ZM50.208 24.632C54.504 24.512 61.176 24.272 67.224 24.008L67.128 26.648C61.248 26.984 54.912 27.272 50.592 27.44L50.208 24.632ZM50.088 17.48H70.056V20.168H50.088V17.48ZM54.36 12.872H65.616V15.512H54.36V12.872ZM55.968 19.232L59.256 20.144C58.128 22.4 56.832 24.896 55.752 26.504L53.232 25.664C54.216 23.912 55.368 21.248 55.968 19.232ZM61.92 21.704L64.464 20.384C66.624 22.232 68.856 24.752 69.96 26.576L67.296 28.184C66.288 26.36 63.984 23.624 61.92 21.704ZM59.976 8.432C58.032 11.168 54.288 14.24 50.304 16.136C49.968 15.44 49.2 14.36 48.6 13.736C52.704 11.936 56.544 8.504 58.32 5.672H61.368C63.912 9.2 67.728 11.936 71.544 13.304C70.848 14.024 70.2 15.056 69.672 15.92C66.072 14.24 62.016 11.216 59.976 8.432ZM81.816 24.656H95.496V27.488H81.816V24.656ZM82.8 13.064H94.92V15.824H82.8V13.064ZM87.384 5.864H90.336V26.024H87.384V5.864ZM73.2 10.064H81.072V12.68H73.2V10.064ZM76.632 18.272L79.488 14.864V28.184H76.632V18.272ZM76.632 5.648H79.488V11.288H76.632V5.648ZM79.2 15.68C80.04 16.256 82.752 18.656 83.4 19.256L81.648 21.584C80.712 20.336 78.696 18.128 77.616 17.072L79.2 15.68ZM80.016 10.064H80.592L81.096 9.968L82.704 11.024C80.88 15.704 77.256 19.904 73.68 22.16C73.416 21.392 72.744 19.976 72.312 19.424C75.576 17.648 78.744 14.12 80.016 10.592V10.064ZM97.44 7.616H118.512V10.064H97.44V7.616ZM106.344 5.576H109.32V8.84H106.344V5.576ZM98.4 17.312H115.944V19.688H101.208V28.184H98.4V17.312ZM114.864 17.312H117.768V25.136C117.768 26.456 117.504 27.224 116.568 27.656C115.656 28.088 114.384 28.136 112.656 28.136C112.56 27.32 112.152 26.168 111.768 25.424C112.848 25.472 114.072 25.472 114.408 25.448C114.768 25.448 114.864 25.352 114.864 25.064V17.312ZM103.368 20.792H105.864V27.272H103.368V20.792ZM104.616 20.792H112.584V26.168H104.616V24.248H110.04V22.712H104.616V20.792ZM104.112 12.92V14.36H111.672V12.92H104.112ZM101.376 11H114.576V16.304H101.376V11ZM121.44 11.216H142.56V14.072H121.44V11.216ZM130.44 5.624H133.512V28.16H130.44V5.624ZM129.816 12.8L132.36 13.64C130.2 18.704 126.648 23.288 122.52 25.904C122.016 25.16 121.032 24.032 120.36 23.432C124.32 21.272 127.968 17.024 129.816 12.8ZM134.064 12.92C135.96 17 139.704 21.176 143.616 23.288C142.92 23.864 141.912 25.016 141.432 25.808C137.424 23.216 133.872 18.632 131.664 13.76L134.064 12.92ZM146.4 8.12H165.648V11.12H146.4V8.12ZM145.056 23.6H167.016V26.504H145.056V23.6ZM154.248 9.752H157.536V24.752H154.248V9.752ZM169.344 20.312H190.752V22.664H169.344V20.312ZM169.392 9.536H190.656V11.912H169.392V9.536ZM170.376 13.832H189.744V16.088H170.376V13.832ZM171.576 17.144H188.616V19.232H171.576V17.144ZM178.536 14.984H181.392V28.16H178.536V14.984ZM176.448 5.6H179.136V10.664H176.448V5.6ZM180.888 5.6H183.624V10.496H180.888V5.6ZM178.008 21.368L180.264 22.376C177.984 24.872 174.144 26.912 170.448 27.872C170.064 27.176 169.224 26.072 168.6 25.472C172.224 24.776 176.04 23.192 178.008 21.368ZM181.968 21.296C183.912 23.192 187.656 24.68 191.4 25.304C190.752 25.904 189.888 27.104 189.456 27.896C185.664 26.936 181.992 24.896 179.736 22.184L181.968 21.296ZM186.408 5.792L189.432 6.512C188.664 7.832 187.848 9.128 187.224 10.016L184.896 9.296C185.448 8.312 186.072 6.848 186.408 5.792ZM183.24 10.952L186.288 11.648C185.64 12.8 185.016 13.856 184.512 14.624L182.064 13.928C182.496 13.064 183 11.84 183.24 10.952ZM171.12 6.56L173.592 5.72C174.288 6.752 175.08 8.192 175.416 9.128L172.8 10.064C172.536 9.128 171.768 7.664 171.12 6.56ZM174.168 11.936L176.952 11.504C177.36 12.176 177.816 13.112 178.008 13.76L175.08 14.264C174.936 13.64 174.528 12.632 174.168 11.936ZM193.272 6.8H203.928V9.416H193.272V6.8ZM205.896 13.76H215.328V16.52H205.896V13.76ZM210.312 15.704H213.168V28.184H210.312V15.704ZM204.744 7.76L208.2 8.576C208.176 8.816 208.008 8.936 207.576 9.008V14.456C207.576 18.344 207.024 24.272 203.208 28.136C202.824 27.512 201.744 26.528 201.072 26.192C204.432 22.784 204.744 18.008 204.744 14.432V7.76ZM194.04 11.216H196.776V17.36C196.776 20.6 196.44 25.256 194.568 28.208C194.112 27.704 192.912 26.792 192.312 26.48C193.896 23.888 194.04 20.12 194.04 17.336V11.216ZM212.64 5.864L215.16 8.024C212.592 9.296 209.208 10.28 206.28 10.928C206.112 10.28 205.656 9.224 205.296 8.624C207.984 7.952 210.912 6.896 212.64 5.864ZM195.624 11.216H203.424V19.424H195.624V16.856H200.64V13.808H195.624V11.216Z" fill="#282828"/>
<path d="M2.07599 53V42.0909H6.25213C7.04048 42.0909 7.69567 42.2152 8.21768 42.4638C8.74325 42.7088 9.13565 43.0444 9.39489 43.4705C9.65767 43.8967 9.78906 44.3796 9.78906 44.9194C9.78906 45.3633 9.70384 45.7433 9.53338 46.0593C9.36293 46.3718 9.13388 46.6257 8.84624 46.821C8.55859 47.0163 8.23722 47.1566 7.8821 47.2418V47.3484C8.26918 47.3697 8.64027 47.4886 8.99538 47.7053C9.35405 47.9183 9.64702 48.2202 9.87429 48.6108C10.1016 49.0014 10.2152 49.4737 10.2152 50.0277C10.2152 50.5923 10.0785 51.1001 9.80504 51.5511C9.53161 51.9986 9.11967 52.3519 8.56925 52.6112C8.01882 52.8704 7.32635 53 6.49183 53H2.07599ZM4.0522 51.3487H6.17756C6.89489 51.3487 7.41158 51.212 7.72763 50.9386C8.04723 50.6616 8.20703 50.3065 8.20703 49.8732C8.20703 49.5501 8.12713 49.2589 7.96733 48.9996C7.80753 48.7369 7.58026 48.5309 7.28551 48.3817C6.99077 48.229 6.6392 48.1527 6.23082 48.1527H4.0522V51.3487ZM4.0522 46.7305H6.0071C6.34801 46.7305 6.65518 46.6683 6.92862 46.544C7.20206 46.4162 7.4169 46.2369 7.57315 46.006C7.73295 45.7717 7.81286 45.4947 7.81286 45.1751C7.81286 44.7525 7.66371 44.4045 7.36541 44.131C7.07067 43.8576 6.6321 43.7209 6.04972 43.7209H4.0522V46.7305ZM17.364 49.5589V44.8182H19.2923V53H17.4226V51.5458H17.3374C17.1527 52.0039 16.8491 52.3786 16.4265 52.6697C16.0075 52.9609 15.4908 53.1065 14.8764 53.1065C14.3402 53.1065 13.8661 52.9876 13.4542 52.7496C13.0458 52.5082 12.7262 52.1584 12.4954 51.7003C12.2646 51.2386 12.1492 50.6811 12.1492 50.0277V44.8182H14.0774V49.7294C14.0774 50.2479 14.2195 50.6598 14.5036 50.9652C14.7877 51.2706 15.1605 51.4233 15.6222 51.4233C15.9063 51.4233 16.1815 51.354 16.4478 51.2156C16.7142 51.0771 16.9325 50.8711 17.103 50.5977C17.277 50.3207 17.364 49.9744 17.364 49.5589ZM21.5751 53V44.8182H23.5034V53H21.5751ZM22.5446 43.657C22.2392 43.657 21.9764 43.5558 21.7563 43.3533C21.5361 43.1474 21.426 42.9006 21.426 42.6129C21.426 42.3217 21.5361 42.0749 21.7563 41.8725C21.9764 41.6665 22.2392 41.5636 22.5446 41.5636C22.8536 41.5636 23.1163 41.6665 23.333 41.8725C23.5531 42.0749 23.6632 42.3217 23.6632 42.6129C23.6632 42.9006 23.5531 43.1474 23.333 43.3533C23.1163 43.5558 22.8536 43.657 22.5446 43.657ZM27.7145 42.0909V53H25.7863V42.0909H27.7145ZM33.0336 53.1438C32.3909 53.1438 31.8156 52.9787 31.3078 52.6484C30.8 52.3182 30.3987 51.8388 30.1039 51.2102C29.8092 50.5817 29.6618 49.8182 29.6618 48.9197C29.6618 48.0107 29.811 47.2436 30.1093 46.6186C30.4111 45.9901 30.8177 45.516 31.3291 45.1964C31.8404 44.8732 32.4104 44.7116 33.039 44.7116C33.5184 44.7116 33.9125 44.7933 34.2215 44.9567C34.5304 45.1165 34.7755 45.31 34.9566 45.5373C35.1377 45.761 35.2779 45.9723 35.3774 46.1712H35.4573V42.0909H37.3909V53H35.4946V51.7109H35.3774C35.2779 51.9098 35.1341 52.1211 34.9459 52.3448C34.7577 52.565 34.5091 52.7532 34.2002 52.9094C33.8912 53.0657 33.5024 53.1438 33.0336 53.1438ZM33.5716 51.5618C33.98 51.5618 34.328 51.4517 34.6157 51.2315C34.9033 51.0078 35.1217 50.6971 35.2708 50.2994C35.42 49.9016 35.4946 49.4382 35.4946 48.9091C35.4946 48.38 35.42 47.9201 35.2708 47.5295C35.1252 47.1388 34.9086 46.8352 34.621 46.6186C34.3369 46.402 33.9871 46.2937 33.5716 46.2937C33.1419 46.2937 32.7833 46.4055 32.4956 46.6293C32.208 46.853 31.9914 47.1619 31.8458 47.5561C31.7002 47.9503 31.6274 48.4013 31.6274 48.9091C31.6274 49.4205 31.7002 49.8768 31.8458 50.2781C31.9949 50.6758 32.2133 50.9901 32.501 51.2209C32.7922 51.4482 33.149 51.5618 33.5716 51.5618ZM39.7456 53V44.8182H41.6739V53H39.7456ZM40.7151 43.657C40.4097 43.657 40.1469 43.5558 39.9268 43.3533C39.7066 43.1474 39.5965 42.9006 39.5965 42.6129C39.5965 42.3217 39.7066 42.0749 39.9268 41.8725C40.1469 41.6665 40.4097 41.5636 40.7151 41.5636C41.0241 41.5636 41.2868 41.6665 41.5035 41.8725C41.7236 42.0749 41.8337 42.3217 41.8337 42.6129C41.8337 42.9006 41.7236 43.1474 41.5035 43.3533C41.2868 43.5558 41.0241 43.657 40.7151 43.657ZM45.885 48.206V53H43.9568V44.8182H45.7998V46.2085H45.8957C46.0839 45.7504 46.384 45.3864 46.7959 45.1165C47.2114 44.8466 47.7245 44.7116 48.3353 44.7116C48.9 44.7116 49.3918 44.8324 49.8108 45.0739C50.2334 45.3153 50.5601 45.6651 50.7909 46.1232C51.0253 46.5813 51.1407 47.1371 51.1372 47.7905V53H49.2089V48.0888C49.2089 47.5419 49.0669 47.114 48.7828 46.805C48.5022 46.4961 48.1134 46.3416 47.6162 46.3416C47.2789 46.3416 46.9788 46.4162 46.716 46.5653C46.4568 46.7109 46.2526 46.9222 46.1034 47.1992C45.9578 47.4762 45.885 47.8118 45.885 48.206ZM56.9556 56.2386C56.2632 56.2386 55.6684 56.1445 55.1712 55.9563C54.674 55.7717 54.2745 55.5231 53.9727 55.2106C53.6708 54.8981 53.4613 54.5518 53.3441 54.1719L55.0806 53.7511C55.1588 53.9109 55.2724 54.0689 55.4216 54.2251C55.5707 54.3849 55.7713 54.5163 56.0235 54.6193C56.2792 54.7259 56.6005 54.7791 56.9876 54.7791C57.5345 54.7791 57.9873 54.646 58.3459 54.3796C58.7046 54.1168 58.8839 53.6836 58.8839 53.0799V51.5298H58.788C58.6886 51.7287 58.543 51.9329 58.3512 52.1424C58.163 52.3519 57.9127 52.5277 57.6002 52.6697C57.2912 52.8118 56.9024 52.8828 56.4336 52.8828C55.8051 52.8828 55.2351 52.7354 54.7238 52.4407C54.2159 52.1424 53.8111 51.6985 53.5093 51.109C53.211 50.516 53.0618 49.7738 53.0618 48.8825C53.0618 47.984 53.211 47.2259 53.5093 46.608C53.8111 45.9865 54.2177 45.516 54.7291 45.1964C55.2404 44.8732 55.8104 44.7116 56.439 44.7116C56.9184 44.7116 57.3125 44.7933 57.6215 44.9567C57.934 45.1165 58.1826 45.31 58.3672 45.5373C58.5519 45.761 58.6922 45.9723 58.788 46.1712H58.8946V44.8182H60.7962V53.1332C60.7962 53.8327 60.6293 54.4116 60.2955 54.8697C59.9617 55.3278 59.5054 55.6705 58.9265 55.8977C58.3477 56.125 57.6907 56.2386 56.9556 56.2386ZM56.9716 51.37C57.38 51.37 57.728 51.2706 58.0157 51.0717C58.3033 50.8729 58.5217 50.587 58.6708 50.2141C58.82 49.8413 58.8946 49.3938 58.8946 48.8718C58.8946 48.3569 58.82 47.9059 58.6708 47.5188C58.5252 47.1317 58.3086 46.8317 58.021 46.6186C57.7369 46.402 57.3871 46.2937 56.9716 46.2937C56.5419 46.2937 56.1833 46.4055 55.8956 46.6293C55.608 46.853 55.3914 47.1602 55.2458 47.5508C55.1002 47.9379 55.0274 48.3782 55.0274 48.8718C55.0274 49.3725 55.1002 49.8111 55.2458 50.1875C55.3949 50.5604 55.6133 50.8516 55.901 51.0611C56.1922 51.267 56.549 51.37 56.9716 51.37ZM68.5793 53H66.4699L70.3104 42.0909H72.7501L76.5959 53H74.4866L71.5729 44.3281H71.4876L68.5793 53ZM68.6485 48.7227H74.4013V50.31H68.6485V48.7227ZM83.4624 49.5589V44.8182H85.3907V53H83.521V51.5458H83.4358C83.2512 52.0039 82.9475 52.3786 82.5249 52.6697C82.1059 52.9609 81.5892 53.1065 80.9749 53.1065C80.4387 53.1065 79.9646 52.9876 79.5526 52.7496C79.1443 52.5082 78.8247 52.1584 78.5938 51.7003C78.363 51.2386 78.2476 50.6811 78.2476 50.0277V44.8182H80.1759V49.7294C80.1759 50.2479 80.3179 50.6598 80.602 50.9652C80.8861 51.2706 81.259 51.4233 81.7206 51.4233C82.0047 51.4233 82.2799 51.354 82.5463 51.2156C82.8126 51.0771 83.031 50.8711 83.2014 50.5977C83.3754 50.3207 83.4624 49.9744 83.4624 49.5589ZM91.7592 44.8182V46.3097H87.0557V44.8182H91.7592ZM88.2169 42.858H90.1452V50.5391C90.1452 50.7983 90.1842 50.9972 90.2624 51.1357C90.344 51.2706 90.4506 51.3629 90.582 51.4126C90.7134 51.4624 90.859 51.4872 91.0188 51.4872C91.1395 51.4872 91.2496 51.4783 91.349 51.4606C91.452 51.4428 91.5301 51.4268 91.5834 51.4126L91.9083 52.9201C91.8053 52.9556 91.658 52.9947 91.4662 53.0373C91.278 53.0799 91.0472 53.1048 90.7737 53.1119C90.2908 53.1261 89.8558 53.0533 89.4687 52.8935C89.0816 52.7301 88.7744 52.478 88.5472 52.1371C88.3234 51.7962 88.2134 51.37 88.2169 50.8587V42.858ZM97.1528 53.1598C96.3538 53.1598 95.6613 52.984 95.0754 52.6325C94.4895 52.2809 94.0349 51.7891 93.7118 51.157C93.3922 50.5249 93.2324 49.7862 93.2324 48.9411C93.2324 48.0959 93.3922 47.3555 93.7118 46.7198C94.0349 46.0842 94.4895 45.5906 95.0754 45.239C95.6613 44.8874 96.3538 44.7116 97.1528 44.7116C97.9518 44.7116 98.6443 44.8874 99.2302 45.239C99.8162 45.5906 100.269 46.0842 100.589 46.7198C100.912 47.3555 101.073 48.0959 101.073 48.9411C101.073 49.7862 100.912 50.5249 100.589 51.157C100.269 51.7891 99.8162 52.2809 99.2302 52.6325C98.6443 52.984 97.9518 53.1598 97.1528 53.1598ZM97.1635 51.6151C97.5967 51.6151 97.9589 51.4961 98.2501 51.2582C98.5413 51.0167 98.7579 50.6935 98.9 50.2887C99.0456 49.8839 99.1184 49.4329 99.1184 48.9357C99.1184 48.435 99.0456 47.9822 98.9 47.5774C98.7579 47.169 98.5413 46.8441 98.2501 46.6026C97.9589 46.3612 97.5967 46.2404 97.1635 46.2404C96.7196 46.2404 96.3503 46.3612 96.0555 46.6026C95.7643 46.8441 95.5459 47.169 95.4003 47.5774C95.2583 47.9822 95.1873 48.435 95.1873 48.9357C95.1873 49.4329 95.2583 49.8839 95.4003 50.2887C95.5459 50.6935 95.7643 51.0167 96.0555 51.2582C96.3503 51.4961 96.7196 51.6151 97.1635 51.6151ZM103.01 53V44.8182H104.853V46.2085H104.949C105.119 45.7397 105.402 45.3739 105.796 45.1112C106.19 44.8448 106.66 44.7116 107.207 44.7116C107.761 44.7116 108.228 44.8466 108.608 45.1165C108.992 45.3828 109.262 45.7468 109.418 46.2085H109.503C109.684 45.7539 109.99 45.3917 110.419 45.1218C110.853 44.8484 111.366 44.7116 111.959 44.7116C112.712 44.7116 113.326 44.9496 113.802 45.4254C114.278 45.9013 114.516 46.5955 114.516 47.5082V53H112.582V47.8065C112.582 47.2987 112.447 46.9276 112.177 46.6932C111.907 46.4553 111.577 46.3363 111.186 46.3363C110.721 46.3363 110.357 46.4819 110.094 46.7731C109.835 47.0607 109.706 47.4354 109.706 47.897V53H107.815V47.7266C107.815 47.304 107.687 46.9666 107.431 46.7145C107.179 46.4624 106.849 46.3363 106.44 46.3363C106.163 46.3363 105.911 46.4073 105.684 46.5494C105.457 46.6879 105.276 46.8849 105.141 47.1406C105.006 47.3928 104.938 47.6875 104.938 48.0249V53H103.01ZM119.126 53.1651C118.608 53.1651 118.141 53.0728 117.725 52.8881C117.313 52.6999 116.987 52.4229 116.745 52.0572C116.507 51.6914 116.388 51.2404 116.388 50.7042C116.388 50.2425 116.474 49.8608 116.644 49.5589C116.814 49.2571 117.047 49.0156 117.342 48.8345C117.637 48.6534 117.969 48.5167 118.338 48.4244C118.711 48.3285 119.096 48.2592 119.494 48.2166C119.973 48.1669 120.362 48.1225 120.66 48.0835C120.959 48.0408 121.175 47.9769 121.31 47.8917C121.449 47.8029 121.518 47.6662 121.518 47.4815V47.4496C121.518 47.0483 121.399 46.7376 121.161 46.5174C120.923 46.2972 120.58 46.1871 120.133 46.1871C119.661 46.1871 119.286 46.2901 119.009 46.4961C118.736 46.7021 118.551 46.9453 118.455 47.2259L116.655 46.9702C116.797 46.473 117.031 46.0575 117.358 45.7237C117.684 45.3864 118.084 45.1342 118.556 44.9673C119.029 44.7969 119.551 44.7116 120.122 44.7116C120.516 44.7116 120.909 44.7578 121.3 44.8501C121.69 44.9425 122.047 45.0952 122.37 45.3082C122.693 45.5178 122.953 45.8036 123.148 46.1658C123.347 46.5281 123.446 46.9808 123.446 47.5241V53H121.592V51.8761H121.529C121.411 52.1033 121.246 52.3164 121.033 52.5153C120.824 52.7106 120.559 52.8686 120.24 52.9893C119.923 53.1065 119.552 53.1651 119.126 53.1651ZM119.627 51.7482C120.014 51.7482 120.35 51.6719 120.634 51.5192C120.918 51.3629 121.136 51.157 121.289 50.9013C121.445 50.6456 121.523 50.3668 121.523 50.065V49.1009C121.463 49.1506 121.36 49.1967 121.214 49.2393C121.072 49.282 120.912 49.3192 120.735 49.3512C120.557 49.3832 120.382 49.4116 120.208 49.4364C120.034 49.4613 119.883 49.4826 119.755 49.5004C119.467 49.5394 119.21 49.6033 118.982 49.6921C118.755 49.7809 118.576 49.9052 118.444 50.065C118.313 50.2212 118.247 50.4237 118.247 50.6722C118.247 51.0273 118.377 51.2955 118.636 51.4766C118.895 51.6577 119.226 51.7482 119.627 51.7482ZM129.771 44.8182V46.3097H125.067V44.8182H129.771ZM126.228 42.858H128.157V50.5391C128.157 50.7983 128.196 50.9972 128.274 51.1357C128.356 51.2706 128.462 51.3629 128.593 51.4126C128.725 51.4624 128.87 51.4872 129.03 51.4872C129.151 51.4872 129.261 51.4783 129.361 51.4606C129.464 51.4428 129.542 51.4268 129.595 51.4126L129.92 52.9201C129.817 52.9556 129.669 52.9947 129.478 53.0373C129.29 53.0799 129.059 53.1048 128.785 53.1119C128.302 53.1261 127.867 53.0533 127.48 52.8935C127.093 52.7301 126.786 52.478 126.559 52.1371C126.335 51.7962 126.225 51.37 126.228 50.8587V42.858ZM131.683 53V44.8182H133.612V53H131.683ZM132.653 43.657C132.347 43.657 132.085 43.5558 131.864 43.3533C131.644 43.1474 131.534 42.9006 131.534 42.6129C131.534 42.3217 131.644 42.0749 131.864 41.8725C132.085 41.6665 132.347 41.5636 132.653 41.5636C132.962 41.5636 133.225 41.6665 133.441 41.8725C133.661 42.0749 133.771 42.3217 133.771 42.6129C133.771 42.9006 133.661 43.1474 133.441 43.3533C133.225 43.5558 132.962 43.657 132.653 43.657ZM139.463 53.1598C138.664 53.1598 137.972 52.984 137.386 52.6325C136.8 52.2809 136.345 51.7891 136.022 51.157C135.703 50.5249 135.543 49.7862 135.543 48.9411C135.543 48.0959 135.703 47.3555 136.022 46.7198C136.345 46.0842 136.8 45.5906 137.386 45.239C137.972 44.8874 138.664 44.7116 139.463 44.7116C140.262 44.7116 140.955 44.8874 141.541 45.239C142.127 45.5906 142.579 46.0842 142.899 46.7198C143.222 47.3555 143.384 48.0959 143.384 48.9411C143.384 49.7862 143.222 50.5249 142.899 51.157C142.579 51.7891 142.127 52.2809 141.541 52.6325C140.955 52.984 140.262 53.1598 139.463 53.1598ZM139.474 51.6151C139.907 51.6151 140.269 51.4961 140.561 51.2582C140.852 51.0167 141.068 50.6935 141.211 50.2887C141.356 49.8839 141.429 49.4329 141.429 48.9357C141.429 48.435 141.356 47.9822 141.211 47.5774C141.068 47.169 140.852 46.8441 140.561 46.6026C140.269 46.3612 139.907 46.2404 139.474 46.2404C139.03 46.2404 138.661 46.3612 138.366 46.6026C138.075 46.8441 137.856 47.169 137.711 47.5774C137.569 47.9822 137.498 48.435 137.498 48.9357C137.498 49.4329 137.569 49.8839 137.711 50.2887C137.856 50.6935 138.075 51.0167 138.366 51.2582C138.661 51.4961 139.03 51.6151 139.474 51.6151ZM147.249 48.206V53H145.32V44.8182H147.163V46.2085H147.259C147.448 45.7504 147.748 45.3864 148.16 45.1165C148.575 44.8466 149.088 44.7116 149.699 44.7116C150.264 44.7116 150.755 44.8324 151.174 45.0739C151.597 45.3153 151.924 45.6651 152.155 46.1232C152.389 46.5813 152.504 47.1371 152.501 47.7905V53H150.573V48.0888C150.573 47.5419 150.431 47.114 150.146 46.805C149.866 46.4961 149.477 46.3416 148.98 46.3416C148.643 46.3416 148.342 46.4162 148.08 46.5653C147.82 46.7109 147.616 46.9222 147.467 47.1992C147.322 47.4762 147.249 47.8118 147.249 48.206ZM164.796 45.0898C164.746 44.6246 164.536 44.2624 164.167 44.0032C163.801 43.744 163.325 43.6143 162.74 43.6143C162.328 43.6143 161.974 43.6765 161.68 43.8008C161.385 43.9251 161.159 44.0937 161.003 44.3068C160.847 44.5199 160.767 44.7631 160.763 45.0366C160.763 45.2638 160.815 45.4609 160.918 45.6278C161.024 45.7947 161.168 45.9368 161.349 46.054C161.53 46.1676 161.731 46.2635 161.951 46.3416C162.171 46.4197 162.393 46.4854 162.617 46.5387L163.64 46.7944C164.052 46.8903 164.448 47.0199 164.828 47.1832C165.211 47.3466 165.554 47.5526 165.856 47.8011C166.161 48.0497 166.403 48.3498 166.58 48.7013C166.758 49.0529 166.846 49.4648 166.846 49.9371C166.846 50.5763 166.683 51.1392 166.356 51.6257C166.03 52.1087 165.557 52.4869 164.939 52.7603C164.325 53.0302 163.581 53.1651 162.708 53.1651C161.859 53.1651 161.122 53.0337 160.497 52.771C159.876 52.5082 159.389 52.1246 159.037 51.6204C158.689 51.1161 158.501 50.5018 158.473 49.7773H160.417C160.445 50.1573 160.563 50.4734 160.769 50.7255C160.975 50.9776 161.243 51.1658 161.573 51.2901C161.907 51.4144 162.28 51.4766 162.692 51.4766C163.121 51.4766 163.498 51.4126 163.821 51.2848C164.148 51.1534 164.403 50.9723 164.588 50.7415C164.773 50.5071 164.867 50.2337 164.87 49.9212C164.867 49.6371 164.783 49.4027 164.62 49.218C164.456 49.0298 164.227 48.8736 163.933 48.7493C163.642 48.6214 163.301 48.5078 162.91 48.4084L161.669 48.0888C160.77 47.858 160.06 47.5082 159.538 47.0394C159.02 46.5671 158.76 45.9403 158.76 45.1591C158.76 44.5163 158.934 43.9535 159.282 43.4705C159.634 42.9876 160.112 42.6129 160.715 42.3466C161.319 42.0767 162.003 41.9418 162.766 41.9418C163.54 41.9418 164.219 42.0767 164.801 42.3466C165.387 42.6129 165.847 42.984 166.181 43.4599C166.514 43.9322 166.687 44.4755 166.697 45.0898H164.796ZM170.022 56.0682C169.759 56.0682 169.515 56.0469 169.292 56.0043C169.072 55.9652 168.896 55.919 168.764 55.8658L169.212 54.3636C169.492 54.4453 169.743 54.4844 169.963 54.4808C170.183 54.4773 170.377 54.408 170.544 54.2731C170.714 54.1417 170.858 53.9215 170.975 53.6126L171.14 53.1705L168.173 44.8182H170.219L172.104 50.9972H172.189L174.08 44.8182H176.131L172.855 53.9908C172.703 54.424 172.5 54.7951 172.248 55.104C171.996 55.4165 171.687 55.6545 171.321 55.8178C170.959 55.9847 170.526 56.0682 170.022 56.0682ZM184.232 46.9808L182.474 47.1726C182.425 46.995 182.338 46.8281 182.213 46.6719C182.093 46.5156 181.929 46.3896 181.723 46.2937C181.517 46.1978 181.265 46.1499 180.967 46.1499C180.566 46.1499 180.228 46.2369 179.955 46.4109C179.685 46.5849 179.552 46.8104 179.555 47.0874C179.552 47.3253 179.639 47.5188 179.816 47.668C179.997 47.8171 180.296 47.9396 180.711 48.0355L182.107 48.3338C182.881 48.5007 183.456 48.7653 183.833 49.1275C184.213 49.4897 184.404 49.9638 184.408 50.5497C184.404 51.0646 184.254 51.5192 183.955 51.9134C183.66 52.304 183.25 52.6094 182.725 52.8295C182.199 53.0497 181.595 53.1598 180.914 53.1598C179.912 53.1598 179.106 52.9503 178.495 52.5312C177.885 52.1087 177.521 51.521 177.403 50.7681L179.284 50.587C179.369 50.9563 179.55 51.2351 179.827 51.4233C180.104 51.6115 180.464 51.7056 180.908 51.7056C181.366 51.7056 181.734 51.6115 182.011 51.4233C182.292 51.2351 182.432 51.0025 182.432 50.7255C182.432 50.4911 182.341 50.2976 182.16 50.1449C181.983 49.9922 181.706 49.875 181.329 49.7933L179.934 49.5004C179.149 49.337 178.568 49.0618 178.192 48.6747C177.815 48.2841 177.629 47.7905 177.632 47.1939C177.629 46.6896 177.766 46.2528 178.043 45.8835C178.323 45.5107 178.712 45.223 179.209 45.0206C179.71 44.8146 180.287 44.7116 180.94 44.7116C181.899 44.7116 182.654 44.9158 183.204 45.3242C183.758 45.7326 184.101 46.2848 184.232 46.9808ZM190.384 44.8182V46.3097H185.68V44.8182H190.384ZM186.841 42.858H188.77V50.5391C188.77 50.7983 188.809 50.9972 188.887 51.1357C188.968 51.2706 189.075 51.3629 189.206 51.4126C189.338 51.4624 189.483 51.4872 189.643 51.4872C189.764 51.4872 189.874 51.4783 189.973 51.4606C190.076 51.4428 190.155 51.4268 190.208 51.4126L190.533 52.9201C190.43 52.9556 190.282 52.9947 190.091 53.0373C189.902 53.0799 189.672 53.1048 189.398 53.1119C188.915 53.1261 188.48 53.0533 188.093 52.8935C187.706 52.7301 187.399 52.478 187.172 52.1371C186.948 51.7962 186.838 51.37 186.841 50.8587V42.858ZM195.831 53.1598C195.01 53.1598 194.302 52.9893 193.705 52.6484C193.112 52.304 192.656 51.8175 192.336 51.1889C192.017 50.5568 191.857 49.8129 191.857 48.957C191.857 48.1154 192.017 47.3768 192.336 46.7411C192.659 46.1019 193.11 45.6048 193.689 45.2496C194.268 44.891 194.948 44.7116 195.729 44.7116C196.234 44.7116 196.709 44.7933 197.157 44.9567C197.608 45.1165 198.006 45.3651 198.35 45.7024C198.698 46.0398 198.971 46.4695 199.17 46.9915C199.369 47.5099 199.469 48.1278 199.469 48.8452V49.4364H192.762V48.1367H197.62C197.617 47.7674 197.537 47.4389 197.381 47.1513C197.224 46.8601 197.006 46.631 196.725 46.4641C196.448 46.2972 196.125 46.2138 195.756 46.2138C195.362 46.2138 195.016 46.3097 194.717 46.5014C194.419 46.6896 194.186 46.9382 194.019 47.2472C193.856 47.5526 193.773 47.8881 193.769 48.2539V49.3885C193.769 49.8643 193.856 50.2727 194.03 50.6136C194.204 50.951 194.447 51.2102 194.76 51.3913C195.072 51.5689 195.438 51.6577 195.857 51.6577C196.138 51.6577 196.392 51.6186 196.619 51.5405C196.846 51.4588 197.043 51.3398 197.21 51.1836C197.377 51.0273 197.503 50.8338 197.588 50.603L199.389 50.8054C199.275 51.2812 199.058 51.6967 198.739 52.0518C198.423 52.4034 198.018 52.6768 197.524 52.8722C197.031 53.0639 196.466 53.1598 195.831 53.1598ZM201.4 53V44.8182H203.243V46.2085H203.339C203.509 45.7397 203.792 45.3739 204.186 45.1112C204.58 44.8448 205.051 44.7116 205.597 44.7116C206.151 44.7116 206.618 44.8466 206.998 45.1165C207.382 45.3828 207.652 45.7468 207.808 46.2085H207.893C208.074 45.7539 208.38 45.3917 208.809 45.1218C209.243 44.8484 209.756 44.7116 210.349 44.7116C211.102 44.7116 211.716 44.9496 212.192 45.4254C212.668 45.9013 212.906 46.5955 212.906 47.5082V53H210.972V47.8065C210.972 47.2987 210.837 46.9276 210.567 46.6932C210.297 46.4553 209.967 46.3363 209.576 46.3363C209.111 46.3363 208.747 46.4819 208.484 46.7731C208.225 47.0607 208.096 47.4354 208.096 47.897V53H206.205V47.7266C206.205 47.304 206.077 46.9666 205.821 46.7145C205.569 46.4624 205.239 46.3363 204.83 46.3363C204.553 46.3363 204.301 46.4073 204.074 46.5494C203.847 46.6879 203.666 46.8849 203.531 47.1406C203.396 47.3928 203.328 47.6875 203.328 48.0249V53H201.4Z" fill="#282828"/>
</svg>
