<svg width="24" height="24" viewBox="0 0 24 24" fill="none" xmlns="http://www.w3.org/2000/svg">
<circle cx="12" cy="12" r="12" fill="#DDF4F0"/>
<path d="M18 7H6C5.86739 7 5.74021 7.05268 5.64645 7.14645C5.55268 7.24021 5.5 7.36739 5.5 7.5V16C5.5 16.2652 5.60536 16.5196 5.79289 16.7071C5.98043 16.8946 6.23478 17 6.5 17H17.5C17.7652 17 18.0196 16.8946 18.2071 16.7071C18.3946 16.5196 18.5 16.2652 18.5 16V7.5C18.5 7.36739 18.4473 7.24021 18.3536 7.14645C18.2598 7.05268 18.1326 7 18 7ZM12 12.3219L7.28562 8H16.7144L12 12.3219ZM10.1694 12L6.5 15.3631V8.63688L10.1694 12ZM10.9094 12.6781L11.6594 13.3687C11.7516 13.4534 11.8723 13.5004 11.9975 13.5004C12.1227 13.5004 12.2434 13.4534 12.3356 13.3687L13.0856 12.6781L16.7106 16H7.28562L10.9094 12.6781ZM13.8306 12L17.5 8.63625V15.3638L13.8306 12Z" fill="#059F81"/>
</svg>
