<svg width="24" height="24" viewBox="0 0 24 24" fill="none" xmlns="http://www.w3.org/2000/svg">
<circle cx="12" cy="12" r="12" fill="#DDF4F0"/>
<path d="M17.8981 13.9039L14.9538 12.5845L14.9456 12.5807C14.7928 12.5154 14.626 12.4891 14.4605 12.5044C14.2949 12.5197 14.1358 12.576 13.9975 12.6682C13.9812 12.679 13.9656 12.6907 13.9506 12.7032L12.4294 14.0001C11.4656 13.532 10.4706 12.5445 10.0025 11.5932L11.3013 10.0489C11.3138 10.0332 11.3256 10.0176 11.3369 10.0007C11.4271 9.86281 11.4819 9.70469 11.4963 9.54048C11.5107 9.37626 11.4843 9.21103 11.4194 9.05949V9.05199L10.0963 6.10262C10.0105 5.90466 9.86296 5.73975 9.67575 5.63252C9.48854 5.52528 9.27166 5.48147 9.05751 5.50762C8.21061 5.61906 7.43324 6.03497 6.87059 6.67768C6.30794 7.32038 5.99847 8.14592 6.00001 9.00012C6.00001 13.9626 10.0375 18.0001 15 18.0001C15.8542 18.0016 16.6797 17.6922 17.3224 17.1295C17.9651 16.5669 18.3811 15.7895 18.4925 14.9426C18.5187 14.7285 18.475 14.5117 18.3679 14.3245C18.2607 14.1373 18.096 13.9898 17.8981 13.9039ZM15 17.0001C12.879 16.9978 10.8455 16.1542 9.34571 14.6544C7.84592 13.1546 7.00232 11.1211 7.00001 9.00012C6.99765 8.3898 7.21754 7.79949 7.61859 7.33943C8.01964 6.87938 8.57444 6.58103 9.17938 6.50012C9.17913 6.50261 9.17913 6.50512 9.17938 6.50762L10.4919 9.44512L9.20001 10.9914C9.18689 11.0065 9.17498 11.0225 9.16438 11.0395C9.07033 11.1838 9.01515 11.35 9.0042 11.5219C8.99325 11.6938 9.0269 11.8657 9.10188 12.0207C9.66813 13.1789 10.835 14.337 12.0056 14.9026C12.1619 14.9769 12.3347 15.0094 12.5072 14.9969C12.6798 14.9844 12.8461 14.9274 12.99 14.8314C13.0061 14.8206 13.0215 14.8089 13.0363 14.7964L14.5556 13.5001L17.4931 14.8157C17.4931 14.8157 17.4981 14.8157 17.5 14.8157C17.4201 15.4215 17.1222 15.9775 16.662 16.3795C16.2019 16.7815 15.611 17.0022 15 17.0001Z" fill="#059F81"/>
</svg>
